<svg id="Layer_1" data-name="Layer 1" xmlns="http://www.w3.org/2000/svg" viewBox="0 0 310.11 272.17"><defs><style>.cls-1,.cls-2,.cls-3{fill:none;stroke-miterlimit:10;}.cls-1,.cls-3{stroke:#000;}.cls-1{stroke-width:2px;}.cls-2{stroke:#020101;}.cls-4{font-size:32px;font-family:CourierNewPSMT, Courier New;}</style></defs><path class="cls-1" d="M875.08,317.12a6.35,6.35,0,0,1,1.19-5.71C888,297,895.09,288.3,903.74,273.85c1.9-3.18,3.42-7,6.45-14.58,14.36-35.94,9.71-52.85,23.14-62.08,6.37-4.37,14.55-7.19,25.09-7.48,48.66-1.33,87.55,0,106.44,24.45s7.11,50.22,14.44,64.44,17.78,31.11,17.78,31.11,16.89,13.34-8.89,4.22S1046,315.49,1022,312.6s-54.44-10-90-4S876,320.3,875.08,317.12Z" transform="translate(-833.23 -188.36)"/><path class="cls-1" d="M1029.74,204.75s-17.36-2-33.14,2.64S1028.89,199.6,1029.74,204.75Z" transform="translate(-833.23 -188.36)"/><path class="cls-1" d="M908.94,274.85s17.34,2.12,33.15-2.41S909.75,280,908.94,274.85Z" transform="translate(-833.23 -188.36)"/><path class="cls-1" d="M981.58,267.7s-17.35-2-33.13,2.64S980.74,262.55,981.58,267.7Z" transform="translate(-833.23 -188.36)"/><path class="cls-1" d="M1016.29,273.68s-16.11-6.75-32.56-6.69S1016.91,268.5,1016.29,273.68Z" transform="translate(-833.23 -188.36)"/><path class="cls-1" d="M1016.2,273s17.26,2.73,33.22-1.24S1016.83,278.15,1016.2,273Z" transform="translate(-833.23 -188.36)"/><path class="cls-1" d="M1052.64,270.42s10-2.32,15.44,2.2C1073.17,276.84,1064.31,267.28,1052.64,270.42Z" transform="translate(-833.23 -188.36)"/><path class="cls-1" d="M921.26,223s-1.42,11.59,1.79,21.92C925.68,253.37,919,236.08,921.26,223Z" transform="translate(-833.23 -188.36)"/><circle class="cls-2" cx="114.27" cy="161.18" r="26.84"/><circle class="cls-2" cx="196.31" cy="161.18" r="26.84"/><path class="cls-2" d="M974.05,346.9c0,.35,13.47-14.94,28.47.63" transform="translate(-833.23 -188.36)"/><path class="cls-3" d="M918.77,343a6.82,6.82,0,0,1,.72-2.27,1.85,1.85,0,0,1,1-.94,2.05,2.05,0,0,1,1.56.42,24.79,24.79,0,0,0-1.28,4.76,24.37,24.37,0,0,0-.32,4.58C920.27,349.13,918,347.84,918.77,343Z" transform="translate(-833.23 -188.36)"/><path class="cls-3" d="M1058.59,342.38a6.58,6.58,0,0,0-.72-2.27,1.82,1.82,0,0,0-1-.94,2,2,0,0,0-1.56.41,24.22,24.22,0,0,1,1.29,4.76,25.3,25.3,0,0,1,.32,4.58C1057.09,348.52,1059.32,347.23,1058.59,342.38Z" transform="translate(-833.23 -188.36)"/><text class="cls-4" transform="translate(30.24 224.97)">ELIJAH NICPON</text></svg>