<svg id="Layer_1" data-name="Layer 1" xmlns="http://www.w3.org/2000/svg" viewBox="0 0 735.02 143.57"><defs><style>.cls-1,.cls-2,.cls-3,.cls-4{fill:none;}.cls-1,.cls-3{stroke:#000;}.cls-1,.cls-2,.cls-3{stroke-miterlimit:10;}.cls-1{stroke-width:2px;}.cls-2{stroke:#020101;}.cls-5{isolation:isolate;font-size:60px;font-family:CourierNewPSMT, Courier New;}</style></defs><path class="cls-1" d="M409.47,404.77a4.34,4.34,0,0,1,.81-3.88c8-9.77,12.79-15.69,18.67-25.52,1.29-2.16,2.32-4.74,4.38-9.91,9.75-24.42,6.59-35.91,15.72-42.18,4.33-3,9.89-4.88,17.05-5.08,33.07-.91,59.49,0,72.32,16.61s4.83,34.12,9.81,43.78,12.09,21.14,12.09,21.14,11.47,9.06-6.05,2.87-28.68,1.06-45-.9-37-6.8-61.16-2.72S410.08,406.93,409.47,404.77Z" transform="translate(-408.32 -316.96)"/><path class="cls-1" d="M514.56,328.42s-11.79-1.36-22.51,1.79S514,324.92,514.56,328.42Z" transform="translate(-408.32 -316.96)"/><path class="cls-1" d="M432.48,376.05s11.78,1.44,22.53-1.64S433,379.56,432.48,376.05Z" transform="translate(-408.32 -316.96)"/><path class="cls-1" d="M481.84,371.19s-11.8-1.36-22.51,1.8S481.27,367.69,481.84,371.19Z" transform="translate(-408.32 -316.96)"/><path class="cls-1" d="M505.43,375.26s-10.95-4.59-22.13-4.55S505.85,371.74,505.43,375.26Z" transform="translate(-408.32 -316.96)"/><path class="cls-1" d="M505.36,374.77s11.73,1.86,22.58-.83S505.79,378.29,505.36,374.77Z" transform="translate(-408.32 -316.96)"/><path class="cls-1" d="M530.13,373s6.79-1.58,10.49,1.5C544.08,377.4,538.06,370.91,530.13,373Z" transform="translate(-408.32 -316.96)"/><path class="cls-1" d="M440.85,340.83a40.74,40.74,0,0,0,1.23,14.89C443.86,361.46,439.32,349.71,440.85,340.83Z" transform="translate(-408.32 -316.96)"/><circle class="cls-2" cx="50.37" cy="109.84" r="18.24"/><circle class="cls-2" cx="514.43" cy="426.8" r="18.24" transform="translate(-485.06 421.78) rotate(-67.5)"/><path class="cls-2" d="M476.72,425c0,.24,9.15-10.15,19.35.43" transform="translate(-408.32 -316.96)"/><path class="cls-3" d="M439.16,422.35a4.7,4.7,0,0,1,.49-1.54,1.24,1.24,0,0,1,.69-.64,1.36,1.36,0,0,1,1.06.28,16.55,16.55,0,0,0-1.08,6.35C440.18,426.52,438.66,425.65,439.16,422.35Z" transform="translate(-408.32 -316.96)"/><path class="cls-3" d="M534.17,421.94a4.6,4.6,0,0,0-.49-1.54,1.24,1.24,0,0,0-.69-.64,1.36,1.36,0,0,0-1.06.28,18,18,0,0,1,.87,3.23,17.1,17.1,0,0,1,.21,3.11C533.15,426.11,534.66,425.23,534.17,421.94Z" transform="translate(-408.32 -316.96)"/><rect class="cls-4" x="424.91" y="76.76" width="310.11" height="66.81"/><text class="cls-5" transform="translate(218.64 76.76)">ELIJAH NICPON</text></svg>